<svg version="1.1" id="Layer_1" xmlns="http://www.w3.org/2000/svg" xmlns:xlink="http://www.w3.org/1999/xlink" x="0px" y="0px"
	 width="38px" height="38px" viewBox="0 0 512 512" enable-background="new 0 0 512 512" xml:space="preserve">
<g>
	<path fill="#EEE" d="M112.066,319.819c21.252-14.114,44.849-21.851,67.67-29.382c3.279-1.078,6.554-2.137,9.813-3.239
		l0.668-0.221c4.822-1.689,9.393-3.284,13.134-5.345c0.169-0.394,0.411-1.049,0.7-2.135c-18.788-27.428-31.554-69.82-31.554-106.136
		c0-30.807,9.682-53.629,27.941-67.526c-7.894-3.991-17.416-5.527-27.663-5.527c-27.307,0-49.442,10.91-49.442,50.082
		c0,26.007,9.755,57.906,24.296,76.43c-0.135,1.464-0.308,2.931-0.571,4.388c-0.867,3.979-2.261,8.437-5.981,10.646
		c-4.174,2.478-8.81,4.051-13.372,5.649c-18.912,6.365-38.472,11.975-55.258,23.121c-8.727,5.745-14.639,15.713-17.9,25.506
		c-3.359,10.163-4.733,24.371-4.526,32.371h51.575C104.868,324.5,108.354,322.258,112.066,319.819z"/>
	<path fill="#FFF" d="M457.457,296.129c-3.263-9.793-9.178-19.379-17.9-25.125c-16.79-11.145-36.352-16.946-55.262-23.307
		c-4.563-1.598-9.197-3.267-13.366-5.746c-3.726-2.213-5.121-6.715-5.982-10.698c-0.382-2.108-0.619-4.25-0.736-6.378
		c13.712-18.761,22.809-49.369,22.809-74.471c0-39.18-22.137-50.097-49.443-50.097c-10.385,0-20.009,1.594-27.967,5.706
		c18.105,13.913,27.697,36.684,27.697,67.366c0,35.358-11.861,76.072-29.895,103.673c0.049,0.313,0.097,0.619,0.153,0.925
		c0.475,2.141,0.864,3.259,1.106,3.814c3.955,2.205,8.687,3.935,13.973,5.794l7.919,2.639c23.412,7.773,47.621,15.722,69.428,30.19
		c3.524,2.325,6.852,4.085,9.971,8.085h52.019C462.189,320.5,460.813,306.292,457.457,296.129z"/>
</g>

</svg>
